<svg width="1280" height="234" viewBox="0 0 1280 234" fill="none" xmlns="http://www.w3.org/2000/svg">
<g clip-path="url(#clip0_59_3748)">
<path d="M316.728 229.584V17.9937L358.061 0V77.3445C362.507 68.8318 369.525 61.9409 378.116 57.655C388.574 52.2309 400.234 49.5413 412.01 49.8359C423.319 49.566 434.516 52.1241 444.587 57.2783C453.58 62.3239 460.834 69.9767 465.395 79.2287C470.574 90.2971 473.059 102.436 472.644 114.651V229.584H431.688V122.753C432.39 112.715 429.632 102.74 423.874 94.4903C420.693 91.1133 416.783 88.5088 412.442 86.876C408.102 85.2432 403.445 84.6252 398.829 85.0695C393.454 84.8894 388.098 85.798 383.082 87.7406C378.067 89.6833 373.495 92.6199 369.642 96.3744C361.921 104.005 358.061 116.818 358.061 134.905V229.113L316.728 229.584Z" fill="#1C1C1C" fill-opacity="0.2"/>
<path d="M547.213 233.635C531.779 234.402 516.652 229.132 505.033 218.939C499.831 213.999 495.739 208.009 493.028 201.366C490.317 194.723 489.049 187.579 489.309 180.408C488.975 174.272 489.896 168.132 492.017 162.365C494.138 156.598 497.414 151.325 501.643 146.87C510.769 138.245 522.059 132.255 534.314 129.535C542.25 127.541 550.299 126.031 558.417 125.014C567.832 123.695 577.248 122.281 586.004 120.586C593.932 119.271 601.654 116.927 608.977 113.614L606.246 142.819C601.168 146.125 595.34 148.101 589.299 148.565L558.794 153.653C550.382 153.993 542.327 157.144 535.915 162.602C531.966 167.024 529.845 172.783 529.983 178.712C529.718 182.228 530.269 185.758 531.591 189.026C532.914 192.294 534.974 195.213 537.609 197.553C543.499 202.002 550.765 204.236 558.135 203.865C563.542 204.015 568.921 203.037 573.929 200.993C578.938 198.95 583.467 195.885 587.228 191.995C591.248 187.543 594.342 182.334 596.33 176.673C598.319 171.013 599.161 165.012 598.808 159.022V113.238C599.214 108.941 598.73 104.606 597.385 100.505C596.041 96.4037 593.865 92.6243 590.994 89.403C584.179 83.9886 575.565 81.3625 566.891 82.0549C557.81 81.2415 548.735 83.6784 541.281 88.932C535.57 94.0129 531.614 100.774 529.983 108.245L491.287 101.462C493.374 90.8491 498.102 80.9345 505.033 72.6341C512.048 64.7013 521.002 58.728 531.019 55.2998C543.153 51.2489 555.89 49.3055 568.68 49.5533C594.007 49.5533 612.084 54.923 622.912 65.4742C628.559 71.4864 632.917 78.5914 635.719 86.3518C638.52 94.1123 639.705 102.364 639.2 110.6V169.291C639.093 180.678 639.596 192.062 640.706 203.394C641.644 212.473 644.363 221.277 648.709 229.301H605.681C603.624 224.304 602.14 219.089 601.256 213.757C599.797 204.405 599.01 194.96 598.903 185.495L605.305 191.618C604.272 200.426 600.406 208.659 594.289 215.076C588.26 221.129 580.959 225.764 572.916 228.642C564.7 231.776 556.004 233.466 547.213 233.635Z" fill="#1C1C1C" fill-opacity="0.2"/>
<path d="M720.83 232.975C709.842 233.286 698.947 230.892 689.101 226.004C680.253 221.468 673.068 214.246 668.575 205.373C663.54 194.861 661.087 183.298 661.42 171.646V53.2273H702.47V163.45C701.789 172.55 704.432 181.588 709.908 188.886C713.057 192.087 716.881 194.542 721.1 196.075C725.319 197.607 729.826 198.176 734.293 197.742C739.486 197.91 744.659 197.039 749.51 195.178C754.36 193.318 758.79 190.506 762.539 186.908C766.749 181.852 769.909 176.007 771.833 169.714C773.757 163.422 774.406 156.808 773.743 150.261V53.2273H814.323V229.584H773.273V205.561C768.92 213.989 762.039 220.842 753.595 225.156C743.534 230.558 732.244 233.253 720.83 232.975Z" fill="#1C1C1C" fill-opacity="0.2"/>
<path d="M910.547 233.635C896.513 233.979 882.526 231.875 869.214 227.417C858.664 223.656 849.305 217.153 842.098 208.576C835.149 199.904 830.285 189.751 827.881 178.9L867.896 172.4C868.768 176.962 870.531 181.307 873.083 185.187C875.636 189.067 878.928 192.405 882.772 195.01C891.878 200.468 902.39 203.122 912.995 202.641C920.672 202.979 928.302 201.289 935.12 197.742C937.809 196.195 940.016 193.931 941.495 191.203C942.975 188.476 943.669 185.391 943.5 182.292C943.657 179.968 943.28 177.639 942.399 175.484C941.518 173.329 940.155 171.404 938.416 169.856C933.795 166.531 928.427 164.395 922.786 163.639L884.466 155.443C875.502 153.62 866.867 150.443 858.857 146.022C851.752 142.198 845.802 136.537 841.627 129.63C837.154 121.716 834.97 112.713 835.319 103.628C834.967 96.0193 836.432 88.436 839.592 81.5061C842.752 74.5762 847.516 68.4993 853.49 63.7785C869.036 53.1443 887.711 48.0661 906.498 49.3648C919.499 49.0667 932.456 50.9779 944.818 55.0171C954.627 58.1742 963.451 63.822 970.427 71.4093C977.173 79.2764 981.778 88.7509 983.797 98.9179L943.782 105.324C942.232 97.7684 937.939 91.0556 931.731 86.4826C924.299 82.6335 916.114 80.4616 907.753 80.1198C899.392 79.778 891.057 81.2746 883.336 84.5042C880.67 85.8313 878.453 87.915 876.963 90.4952C875.473 93.0754 874.775 96.0377 874.957 99.0122C874.84 101.441 875.319 103.862 876.353 106.062C877.387 108.263 878.945 110.177 880.889 111.636C886.046 115.034 891.904 117.223 898.024 118.042L935.685 126.144C944.145 127.785 952.304 130.708 959.882 134.811C966.818 138.624 972.705 144.093 977.018 150.732C981.591 158.472 983.815 167.375 983.42 176.357C983.723 184.242 982.177 192.089 978.908 199.27C975.638 206.451 970.735 212.767 964.59 217.714C948.948 229.096 929.857 234.72 910.547 233.635Z" fill="#1C1C1C" fill-opacity="0.2"/>
<path d="M989.258 89.4973V53.2274H1103.84V89.4973H989.258ZM1070.61 231.939C1059.47 232.439 1048.39 230.105 1038.41 225.156C1030.46 220.916 1024.19 214.109 1020.61 205.844C1016.68 196.652 1014.76 186.728 1014.96 176.734V17.9937L1056.01 0V168.914C1055.73 175.073 1057.37 181.166 1060.72 186.343C1062.58 188.65 1064.98 190.46 1067.7 191.611C1070.43 192.762 1073.4 193.218 1076.35 192.937C1079.83 192.856 1083.29 192.478 1086.71 191.807C1091.27 190.891 1095.75 189.567 1100.08 187.85L1106.48 224.497C1100.42 227.057 1094.11 228.982 1087.65 230.244C1082.03 231.348 1076.33 231.915 1070.61 231.939Z" fill="#1C1C1C" fill-opacity="0.2"/>
<path d="M1194.32 233.635C1178.68 234.052 1163.2 230.383 1149.41 222.989C1136.57 215.82 1126.17 204.957 1119.56 191.807C1112.55 176.03 1108.93 158.955 1108.93 141.688C1108.93 124.421 1112.55 107.346 1119.56 91.5697C1126.22 78.5004 1136.66 67.7349 1149.5 60.6696C1163.37 53.2761 1178.9 49.5776 1194.6 49.93C1210.25 49.5458 1225.73 53.2472 1239.51 60.6696C1252.38 67.8107 1262.79 78.6816 1269.36 91.8523C1276.4 107.589 1280.04 124.636 1280.04 141.877C1280.04 159.117 1276.4 176.164 1269.36 191.901C1262.71 205.081 1252.24 215.949 1239.33 223.084C1225.48 230.424 1209.98 234.059 1194.32 233.635ZM1194.32 199.061C1202.14 199.211 1209.86 197.224 1216.64 193.314C1223.71 188.855 1229.19 182.255 1232.26 174.472C1239.83 153.143 1239.83 129.857 1232.26 108.527C1229.13 100.986 1223.73 94.6021 1216.82 90.2508C1210.1 86.2888 1202.41 84.2673 1194.6 84.41C1186.84 84.3277 1179.19 86.3456 1172.48 90.2508C1165.39 94.4923 1159.84 100.898 1156.66 108.527C1149.09 129.857 1149.09 153.143 1156.66 174.472C1159.74 182.255 1165.21 188.855 1172.29 193.314C1178.97 197.21 1186.59 199.197 1194.32 199.061Z" fill="#1C1C1C" fill-opacity="0.2"/>
<path d="M218.904 48.9885L170.981 6.68934C167.293 3.45336 162.791 1.28664 157.963 0.423302C153.134 -0.44004 148.162 0.0327508 143.582 1.7905L17.2299 50.3074C12.1621 52.2788 7.80668 55.7342 4.73273 60.2218C1.65879 64.7094 0.00948269 70.0205 0.00012207 75.461V202.735C0.00012207 209.856 2.82722 216.686 7.85946 221.721C12.8917 226.756 19.7166 229.585 26.8333 229.585H201.109C204.637 229.597 208.132 228.911 211.393 227.566C214.654 226.221 217.617 224.244 220.111 221.748C222.605 219.253 224.581 216.288 225.925 213.025C227.269 209.762 227.955 206.265 227.943 202.735V69.0548C227.938 65.2609 227.131 61.5111 225.573 58.0523C224.015 54.5936 221.742 51.5044 218.904 48.9885ZM176.347 194.163H51.6896C48.0189 194.163 44.4985 192.703 41.9029 190.106C39.3073 187.509 37.8492 183.987 37.8492 180.314C37.8492 176.641 39.3073 173.119 41.9029 170.522C44.4985 167.925 48.0189 166.465 51.6896 166.465H176.441C180.112 166.465 183.633 167.925 186.228 170.522C188.824 173.119 190.282 176.641 190.282 180.314C190.282 183.987 188.824 187.509 186.228 190.106C183.633 192.703 180.112 194.163 176.441 194.163H176.347Z" fill="#1C1C1C" fill-opacity="0.2"/>
</g>
<defs>
<clipPath id="clip0_59_3748">
<rect width="1280" height="233.635" fill="white"/>
</clipPath>
</defs>
</svg>
