<svg width="175" height="32" viewBox="0 0 175 32" fill="none" xmlns="http://www.w3.org/2000/svg">
<g clip-path="url(#clip0_134_1956)">
<path d="M43.2344 31.4452V2.46452L48.8765 0V10.5936C49.4833 9.4276 50.4414 8.48379 51.614 7.89677C53.0417 7.15385 54.6333 6.78546 56.2408 6.82582C57.7845 6.78885 59.313 7.13921 60.6877 7.84516C61.9152 8.53624 62.9055 9.58441 63.528 10.8516C64.2351 12.3676 64.5742 14.0302 64.5176 15.7032V31.4452H58.9269V16.8129C59.0227 15.4381 58.6462 14.0718 57.8602 12.9419C57.4261 12.4794 56.8923 12.1227 56.2998 11.899C55.7073 11.6754 55.0716 11.5908 54.4415 11.6516C53.7078 11.6269 52.9766 11.7514 52.292 12.0175C51.6073 12.2835 50.9833 12.6858 50.4573 13.2C49.4034 14.2452 48.8765 16 48.8765 18.4774V31.3807L43.2344 31.4452Z" fill="#1C1C1C"/>
<path d="M74.6974 32C72.5906 32.105 70.5257 31.3832 68.9396 29.9871C68.2295 29.3105 67.6709 28.4901 67.3009 27.5802C66.9308 26.6703 66.7578 25.6918 66.7933 24.7096C66.7476 23.8692 66.8734 23.0283 67.1629 22.2384C67.4524 21.4485 67.8996 20.7263 68.477 20.1161C69.7226 18.9348 71.2638 18.1143 72.9367 17.7419C74.0199 17.4687 75.1186 17.2619 76.2268 17.1225C77.5121 16.9419 78.7973 16.7483 79.9925 16.5161C81.0747 16.336 82.1289 16.015 83.1285 15.5612L82.7557 19.5612C82.0625 20.0141 81.267 20.2847 80.4424 20.3483L76.2782 21.0451C75.13 21.0918 74.0304 21.5234 73.1551 22.2709C72.6161 22.8766 72.3267 23.6654 72.3454 24.4774C72.3093 24.959 72.3844 25.4424 72.565 25.8901C72.7456 26.3377 73.0267 26.7374 73.3865 27.058C74.1904 27.6673 75.1823 27.9733 76.1883 27.9225C76.9264 27.943 77.6606 27.8091 78.3443 27.5292C79.028 27.2492 79.6462 26.8295 80.1596 26.2967C80.7084 25.6869 81.1308 24.9735 81.4022 24.1982C81.6736 23.4228 81.7885 22.601 81.7404 21.7806V15.5096C81.7958 14.9211 81.7297 14.3274 81.5462 13.7657C81.3626 13.204 81.0656 12.6863 80.6737 12.2451C79.7434 11.5035 78.5676 11.1438 77.3835 11.2387C76.1439 11.1273 74.9052 11.461 73.8877 12.1806C73.1081 12.8765 72.5682 13.8026 72.3454 14.8258L67.0632 13.8967C67.3482 12.4432 67.9935 11.0852 68.9396 9.94835C69.8972 8.86182 71.1196 8.04368 72.4868 7.57414C74.1432 7.01931 75.8819 6.75312 77.6277 6.78706C81.085 6.78706 83.5526 7.52253 85.0306 8.96769C85.8015 9.79115 86.3965 10.7643 86.7788 11.8272C87.1612 12.8901 87.3229 14.0203 87.254 15.1483V23.187C87.2394 24.7466 87.3081 26.3058 87.4596 27.858C87.5876 29.1015 87.9589 30.3073 88.5521 31.4064H82.6786C82.3978 30.7219 82.1951 30.0077 82.0746 29.2774C81.8754 27.9964 81.768 26.7028 81.7533 25.4064L82.6272 26.2451C82.4863 27.4515 81.9586 28.5791 81.1235 29.458C80.3005 30.2871 79.3039 30.9219 78.206 31.3161C77.0845 31.7454 75.8975 31.9768 74.6974 32Z" fill="#1C1C1C"/>
<path d="M98.396 31.9096C96.8962 31.9521 95.4089 31.6243 94.0648 30.9548C92.8572 30.3335 91.8764 29.3443 91.263 28.129C90.5757 26.6892 90.2409 25.1055 90.2863 23.5096V7.29028H95.8898V22.3871C95.7969 23.6335 96.1577 24.8714 96.9052 25.8709C97.335 26.3093 97.857 26.6456 98.4329 26.8555C99.0088 27.0653 99.6241 27.1433 100.234 27.0838C100.943 27.1069 101.649 26.9875 102.311 26.7327C102.973 26.4779 103.578 26.0927 104.09 25.5999C104.664 24.9075 105.096 24.1069 105.358 23.245C105.621 22.3831 105.709 21.4773 105.619 20.5806V7.29028H111.158V31.4451H105.555V28.1548C104.961 29.3092 104.021 30.2477 102.869 30.8387C101.495 31.5786 99.9541 31.9476 98.396 31.9096Z" fill="#1C1C1C"/>
<path d="M124.294 31.9999C122.378 32.0471 120.469 31.7589 118.652 31.1483C117.212 30.6332 115.934 29.7425 114.95 28.5676C114.002 27.3799 113.338 25.9893 113.01 24.5031L118.472 23.6128C118.591 24.2376 118.832 24.8328 119.18 25.3642C119.529 25.8956 119.978 26.3527 120.503 26.7096C121.746 27.4572 123.181 27.8207 124.628 27.7547C125.676 27.8011 126.718 27.5697 127.648 27.0838C128.015 26.8719 128.317 26.5618 128.519 26.1882C128.721 25.8146 128.815 25.3921 128.792 24.9676C128.814 24.6494 128.762 24.3304 128.642 24.0352C128.522 23.74 128.336 23.4763 128.098 23.2644C127.468 22.8089 126.735 22.5164 125.965 22.4128L120.734 21.2902C119.51 21.0406 118.332 20.6055 117.238 19.9999C116.268 19.4762 115.456 18.7008 114.886 17.7547C114.276 16.6709 113.977 15.4377 114.025 14.1934C113.977 13.1513 114.177 12.1126 114.608 11.1634C115.04 10.2143 115.69 9.38195 116.506 8.73537C118.628 7.27884 121.177 6.5833 123.741 6.76117C125.516 6.72035 127.285 6.98212 128.972 7.53536C130.311 7.96776 131.516 8.74132 132.468 9.78052C133.389 10.8581 134.017 12.1557 134.293 13.5483L128.831 14.4257C128.619 13.3908 128.033 12.4714 127.186 11.845C126.171 11.3179 125.054 11.0204 123.913 10.9736C122.771 10.9267 121.634 11.1317 120.58 11.5741C120.216 11.7558 119.913 12.0412 119.71 12.3946C119.506 12.748 119.411 13.1538 119.436 13.5612C119.42 13.8939 119.485 14.2254 119.626 14.5268C119.768 14.8282 119.98 15.0903 120.246 15.2902C120.95 15.7556 121.749 16.0555 122.585 16.1676L127.726 17.2773C128.88 17.5021 129.994 17.9024 131.029 18.4644C131.975 18.9866 132.779 19.7357 133.368 20.645C133.992 21.7051 134.295 22.9245 134.242 24.1547C134.283 25.2348 134.072 26.3095 133.626 27.2931C133.179 28.2766 132.51 29.1417 131.671 29.8192C129.536 31.3782 126.93 32.1485 124.294 31.9999Z" fill="#1C1C1C"/>
<path d="M135.038 12.2581V7.29033H150.679V12.2581H135.038ZM146.142 31.7677C144.623 31.8362 143.11 31.5165 141.747 30.8387C140.663 30.258 139.807 29.3256 139.318 28.1936C138.782 26.9346 138.519 25.5754 138.547 24.2065V2.46452L144.15 0V23.1355C144.112 23.979 144.336 24.8135 144.793 25.5226C145.046 25.8386 145.374 26.0866 145.746 26.2442C146.119 26.4019 146.524 26.4642 146.926 26.4258C147.401 26.4147 147.874 26.3629 148.34 26.271C148.963 26.1455 149.574 25.9642 150.165 25.729L151.039 30.7484C150.212 31.099 149.35 31.3628 148.469 31.5355C147.702 31.6867 146.923 31.7645 146.142 31.7677Z" fill="#1C1C1C"/>
<path d="M163.03 32C160.895 32.0571 158.782 31.5546 156.899 30.5419C155.146 29.56 153.727 28.0721 152.825 26.2709C151.868 24.1101 151.373 21.7714 151.373 19.4064C151.373 17.0414 151.868 14.7028 152.825 12.5419C153.734 10.7518 155.158 9.27735 156.912 8.30964C158.804 7.29699 160.925 6.79041 163.068 6.83868C165.204 6.78606 167.317 7.29303 169.199 8.30964C170.955 9.28773 172.376 10.7767 173.273 12.5806C174.234 14.736 174.73 17.0708 174.73 19.4322C174.73 21.7936 174.234 24.1284 173.273 26.2838C172.365 28.0891 170.937 29.5776 169.173 30.5548C167.284 31.5602 165.167 32.058 163.03 32ZM163.03 27.2645C164.097 27.285 165.151 27.0129 166.076 26.4774C167.042 25.8666 167.789 24.9627 168.209 23.8967C169.242 20.9753 169.242 17.7859 168.209 14.8645C167.781 13.8316 167.045 12.9572 166.101 12.3613C165.183 11.8186 164.134 11.5417 163.068 11.5613C162.008 11.55 160.965 11.8264 160.048 12.3613C159.08 12.9422 158.323 13.8196 157.889 14.8645C156.856 17.7859 156.856 20.9753 157.889 23.8967C158.309 24.9627 159.056 25.8666 160.022 26.4774C160.934 27.0109 161.974 27.2832 163.03 27.2645Z" fill="#1C1C1C"/>
<path d="M29.8814 6.7098L23.3396 0.916265C22.8362 0.473046 22.2217 0.17628 21.5626 0.0580315C20.9035 -0.0602169 20.2248 0.00453932 19.5996 0.245291L2.35194 6.89045C1.66017 7.16047 1.06563 7.63373 0.646022 8.24838C0.226415 8.86302 0.00127777 9.59047 0 10.3356V27.7679C0 28.7432 0.385911 29.6786 1.07283 30.3682C1.75976 31.0579 2.69139 31.4453 3.66285 31.4453H27.4523C27.9338 31.447 28.4109 31.353 28.856 31.1688C29.3012 30.9846 29.7057 30.7138 30.0461 30.372C30.3866 30.0302 30.6563 29.6241 30.8398 29.1772C31.0233 28.7302 31.1169 28.2513 31.1152 27.7679V9.45819C31.1146 8.93857 31.0043 8.42497 30.7917 7.95124C30.579 7.4775 30.2688 7.05439 29.8814 6.7098ZM24.0721 26.5937H7.05585C6.55478 26.5937 6.07422 26.3938 5.71991 26.0381C5.3656 25.6824 5.16657 25.2 5.16657 24.6969C5.16657 24.1938 5.3656 23.7114 5.71991 23.3557C6.07422 23 6.55478 22.8001 7.05585 22.8001H24.085C24.5861 22.8001 25.0666 23 25.4209 23.3557C25.7753 23.7114 25.9743 24.1938 25.9743 24.6969C25.9743 25.2 25.7753 25.6824 25.4209 26.0381C25.0666 26.3938 24.5861 26.5937 24.085 26.5937H24.0721Z" fill="#F77D19"/>
</g>
<defs>
<clipPath id="clip0_134_1956">
<rect width="174.726" height="32" fill="white"/>
</clipPath>
</defs>
</svg>
