<svg width="16" height="16" viewBox="0 0 16 16" fill="none" xmlns="http://www.w3.org/2000/svg">
<g id="Icon">
<path id="overlay-color" d="M15.3655 3.41389L12.0017 0.465972C11.7428 0.240451 11.4268 0.0894476 11.0879 0.0292796C10.749 -0.0308885 10.3999 0.00206128 10.0785 0.124563L1.20941 3.5058C0.85369 3.6432 0.547966 3.88401 0.332197 4.19676C0.116427 4.5095 0.000657051 4.87965 0 5.2588V14.1288C0 14.6251 0.198443 15.101 0.551671 15.4519C0.904899 15.8029 1.38396 16 1.8835 16H14.1165C14.3641 16.0009 14.6094 15.9531 14.8383 15.8593C15.0672 15.7656 15.2752 15.6278 15.4503 15.4539C15.6253 15.2799 15.764 15.0733 15.8584 14.8459C15.9527 14.6185 16.0009 14.3748 16 14.1288V4.81234C15.9997 4.54795 15.943 4.28661 15.8336 4.04556C15.7243 3.80451 15.5647 3.58922 15.3655 3.41389ZM12.3783 13.5314H3.62825C3.37059 13.5314 3.12347 13.4297 2.94128 13.2487C2.75909 13.0677 2.65675 12.8222 2.65675 12.5662C2.65675 12.3103 2.75909 12.0648 2.94128 11.8838C3.12347 11.7028 3.37059 11.6011 3.62825 11.6011H12.385C12.6426 11.6011 12.8897 11.7028 13.0719 11.8838C13.2541 12.0648 13.3565 12.3103 13.3565 12.5662C13.3565 12.8222 13.2541 13.0677 13.0719 13.2487C12.8897 13.4297 12.6426 13.5314 12.385 13.5314H12.3783Z" fill="white"/>
</g>
</svg>
