<svg width="131" height="24" viewBox="0 0 131 24" fill="none" xmlns="http://www.w3.org/2000/svg">
<g clip-path="url(#clip0_990_6527)">
<path d="M32.415 23.5839V1.84839L36.6452 0V7.94517C37.1002 7.0707 37.8185 6.36284 38.6977 5.92258C39.768 5.36539 40.9613 5.08909 42.1666 5.11936C43.3239 5.09164 44.4699 5.35441 45.5006 5.88387C46.4209 6.40218 47.1634 7.18831 47.6301 8.13871C48.1602 9.27571 48.4145 10.5227 48.3721 11.7774V23.5839H44.1805V12.6097C44.2523 11.5786 43.97 10.5539 43.3807 9.70645C43.0552 9.35955 42.655 9.09201 42.2108 8.92428C41.7665 8.75655 41.29 8.69307 40.8175 8.73871C40.2674 8.72021 39.7193 8.81354 39.206 9.0131C38.6926 9.21266 38.2247 9.51432 37.8304 9.9C37.0403 10.6839 36.6452 12 36.6452 13.8581V23.5355L32.415 23.5839Z" fill="white"/>
<path d="M56.0042 23.9997C54.4247 24.0785 52.8765 23.5371 51.6873 22.49C51.1549 21.9827 50.7361 21.3673 50.4587 20.6849C50.1813 20.0025 50.0515 19.2686 50.0781 18.532C50.0439 17.9017 50.1382 17.271 50.3552 16.6786C50.5723 16.0861 50.9076 15.5445 51.3404 15.0868C52.2744 14.2008 53.4299 13.5855 54.6841 13.3062C55.4962 13.1013 56.32 12.9462 57.1509 12.8417C58.1145 12.7062 59.0781 12.561 59.9742 12.3868C60.7856 12.2517 61.576 12.011 62.3254 11.6707L62.0459 14.6707C61.5261 15.0103 60.9297 15.2133 60.3115 15.261L57.1894 15.7836C56.3285 15.8186 55.5042 16.1423 54.8479 16.703C54.4438 17.1572 54.2267 17.7488 54.2408 18.3578C54.2137 18.719 54.2701 19.0816 54.4055 19.4173C54.5408 19.753 54.7516 20.0528 55.0213 20.2933C55.6241 20.7502 56.3677 20.9797 57.122 20.9417C57.6754 20.957 58.2258 20.8565 58.7385 20.6466C59.2511 20.4367 59.7146 20.1219 60.0995 19.7223C60.5109 19.2649 60.8276 18.7299 61.0311 18.1484C61.2346 17.5669 61.3208 16.9505 61.2847 16.3352V11.632C61.3262 11.1906 61.2767 10.7453 61.1391 10.324C61.0014 9.90273 60.7788 9.51449 60.4849 9.1836C59.7875 8.6274 58.9059 8.35763 58.0181 8.42876C57.0887 8.34521 56.16 8.59554 55.3972 9.13521C54.8126 9.65714 54.4078 10.3517 54.2408 11.1191L50.2805 10.4223C50.4942 9.33214 50.978 8.31367 51.6873 7.46102C52.4053 6.64612 53.3217 6.03252 54.3468 5.68036C55.5887 5.26424 56.8923 5.0646 58.2012 5.09005C60.7933 5.09005 62.6434 5.64165 63.7515 6.72552C64.3295 7.34312 64.7755 8.07297 65.0622 8.87016C65.3489 9.66735 65.4702 10.515 65.4185 11.361V17.39C65.4076 18.5597 65.459 19.7291 65.5727 20.8933C65.6686 21.8259 65.947 22.7302 66.3917 23.5546H61.9881C61.7775 23.0412 61.6256 22.5055 61.5352 21.9578C61.3859 20.9971 61.3054 20.0268 61.2943 19.0546L61.9496 19.6836C61.8439 20.5883 61.4482 21.4341 60.8222 22.0933C60.2051 22.7151 59.4579 23.1911 58.6348 23.4868C57.7939 23.8088 56.904 23.9823 56.0042 23.9997Z" fill="white"/>
<path d="M73.7728 23.9323C72.6483 23.9642 71.5332 23.7183 70.5255 23.2162C69.62 22.7502 68.8846 22.0083 68.4248 21.0968C67.9095 20.017 67.6585 18.8292 67.6925 17.6323V5.46777H71.8937V16.7904C71.8241 17.7252 72.0946 18.6536 72.655 19.4033C72.9772 19.732 73.3686 19.9843 73.8004 20.1417C74.2322 20.2991 74.6935 20.3576 75.1507 20.3129C75.6821 20.3302 76.2115 20.2407 76.708 20.0496C77.2044 19.8585 77.6578 19.5696 78.0415 19.2C78.4723 18.6807 78.7957 18.0802 78.9926 17.4338C79.1895 16.7874 79.256 16.108 79.1881 15.4355V5.46777H83.3412V23.5839H79.14V21.1162C78.6945 21.9819 77.9902 22.6859 77.126 23.1291C76.0964 23.684 74.9409 23.9608 73.7728 23.9323Z" fill="white"/>
<path d="M93.1888 24.0003C91.7526 24.0357 90.3211 23.8195 88.9587 23.3616C87.8789 22.9752 86.9211 22.3072 86.1835 21.4261C85.4724 20.5353 84.9746 19.4924 84.7285 18.3777L88.8238 17.71C88.9131 18.1786 89.0935 18.625 89.3547 19.0235C89.616 19.422 89.9529 19.7649 90.3462 20.0325C91.2782 20.5932 92.3541 20.8659 93.4394 20.8164C94.2251 20.8512 95.006 20.6776 95.7038 20.3132C95.979 20.1543 96.2048 19.9217 96.3563 19.6415C96.5077 19.3613 96.5787 19.0444 96.5614 18.7261C96.5775 18.4874 96.5389 18.2482 96.4487 18.0268C96.3585 17.8054 96.2191 17.6076 96.0411 17.4487C95.5682 17.107 95.0188 16.8877 94.4415 16.8099L90.5197 15.968C89.6022 15.7808 88.7185 15.4545 87.8987 15.0003C87.1716 14.6075 86.5626 14.026 86.1353 13.3164C85.6775 12.5035 85.454 11.5787 85.4898 10.6454C85.4537 9.86381 85.6036 9.08482 85.927 8.37295C86.2504 7.66108 86.738 7.03683 87.3495 6.55189C88.9405 5.4595 90.8518 4.93784 92.7745 5.07125C94.1051 5.04063 95.4311 5.23695 96.6963 5.65188C97.7002 5.97619 98.6032 6.55636 99.3173 7.33576C100.008 8.1439 100.479 9.11716 100.686 10.1616L96.5903 10.8196C96.4317 10.0435 95.9922 9.35391 95.3569 8.88415C94.5963 8.48876 93.7587 8.26565 92.9029 8.23054C92.0472 8.19543 91.1942 8.34916 90.404 8.68092C90.1311 8.81725 89.9043 9.0313 89.7518 9.29635C89.5992 9.56139 89.5278 9.8657 89.5465 10.1713C89.5345 10.4208 89.5836 10.6694 89.6894 10.8955C89.7952 11.1215 89.9546 11.3181 90.1535 11.468C90.6814 11.8171 91.2809 12.042 91.9073 12.1261L95.7616 12.9583C96.6274 13.1269 97.4624 13.4272 98.238 13.8487C98.9479 14.2404 99.5503 14.8022 99.9918 15.4841C100.46 16.2792 100.687 17.1937 100.647 18.1164C100.678 18.9264 100.52 19.7325 100.185 20.4702C99.8506 21.2078 99.3487 21.8567 98.7198 22.3648C97.119 23.534 95.1651 24.1117 93.1888 24.0003Z" fill="white"/>
<path d="M101.244 9.19355V5.46775H112.971V9.19355H101.244ZM109.57 23.8258C108.43 23.8771 107.296 23.6374 106.274 23.129C105.461 22.6935 104.819 21.9942 104.453 21.1452C104.051 20.201 103.854 19.1816 103.875 18.1549V1.84839L108.076 0V17.3516C108.047 17.9842 108.215 18.6102 108.558 19.1419C108.748 19.379 108.993 19.5649 109.273 19.6832C109.552 19.8014 109.856 19.8482 110.157 19.8194C110.513 19.811 110.868 19.7722 111.217 19.7032C111.685 19.6092 112.143 19.4731 112.586 19.2968L113.241 23.0613C112.62 23.3242 111.975 23.5221 111.314 23.6516C110.739 23.765 110.155 23.8234 109.57 23.8258Z" fill="white"/>
<path d="M122.232 23.9997C120.631 24.0426 119.047 23.6657 117.635 22.9062C116.321 22.1697 115.257 21.0538 114.581 19.703C113.863 18.0823 113.492 16.3283 113.492 14.5546C113.492 12.7808 113.863 11.0268 114.581 9.40618C115.263 8.06364 116.33 6.95777 117.645 6.23199C119.064 5.4725 120.653 5.09256 122.261 5.12876C123.862 5.0893 125.446 5.46953 126.857 6.23199C128.174 6.96555 129.239 8.08226 129.912 9.43521C130.632 11.0518 131.004 12.8029 131.004 14.5739C131.004 16.345 130.632 18.0961 129.912 19.7126C129.231 21.0666 128.16 22.183 126.838 22.9159C125.421 23.6699 123.834 24.0433 122.232 23.9997ZM122.232 20.4481C123.032 20.4635 123.822 20.2594 124.516 19.8578C125.24 19.3997 125.8 18.7218 126.115 17.9223C126.89 15.7313 126.89 13.3392 126.115 11.1481C125.794 10.3735 125.242 9.71768 124.535 9.2707C123.846 8.86371 123.059 8.65604 122.261 8.6707C121.466 8.66225 120.684 8.86954 119.996 9.2707C119.271 9.7064 118.703 10.3645 118.377 11.1481C117.603 13.3392 117.603 15.7313 118.377 17.9223C118.692 18.7218 119.253 19.3997 119.977 19.8578C120.661 20.258 121.441 20.4621 122.232 20.4481Z" fill="white"/>
<path d="M22.4035 5.03198L17.4988 0.686832C17.1214 0.354418 16.6607 0.131844 16.1665 0.0431574C15.6723 -0.0455289 15.1634 0.00303828 14.6947 0.183602L1.76336 5.16747C1.24471 5.36998 0.798952 5.72493 0.484353 6.18592C0.169754 6.6469 0.000958001 7.19248 0 7.75135V20.8255C0 21.557 0.289336 22.2586 0.804354 22.7758C1.31937 23.293 2.01786 23.5836 2.74621 23.5836H20.5823C20.9433 23.5849 21.301 23.5144 21.6347 23.3763C21.9685 23.2381 22.2717 23.035 22.527 22.7786C22.7823 22.5223 22.9845 22.2177 23.122 21.8825C23.2596 21.5473 23.3298 21.1881 23.3285 20.8255V7.09328C23.3281 6.70356 23.2454 6.31836 23.086 5.96306C22.9265 5.60776 22.6939 5.29043 22.4035 5.03198ZM18.048 19.9449H5.2901C4.91442 19.9449 4.55413 19.795 4.28849 19.5282C4.02284 19.2614 3.87362 18.8996 3.87362 18.5223C3.87362 18.145 4.02284 17.7832 4.28849 17.5164C4.55413 17.2496 4.91442 17.0997 5.2901 17.0997H18.0577C18.4333 17.0997 18.7936 17.2496 19.0593 17.5164C19.3249 17.7832 19.4741 18.145 19.4741 18.5223C19.4741 18.8996 19.3249 19.2614 19.0593 19.5282C18.7936 19.795 18.4333 19.9449 18.0577 19.9449H18.048Z" fill="#F77D19"/>
</g>
<defs>
<clipPath id="clip0_990_6527">
<rect width="131" height="24" fill="white"/>
</clipPath>
</defs>
</svg>
