<svg width="24" height="24" viewBox="0 0 24 24" fill="none" xmlns="http://www.w3.org/2000/svg">
<path id="Vector" d="M22.4035 5.03198L17.4988 0.686832C17.1214 0.354418 16.6607 0.131844 16.1665 0.0431574C15.6723 -0.0455289 15.1634 0.00303828 14.6947 0.183602L1.76336 5.16747C1.24471 5.36998 0.798952 5.72493 0.484353 6.18592C0.169754 6.6469 0.000958001 7.19248 0 7.75135V20.8255C0 21.557 0.289336 22.2586 0.804354 22.7758C1.31937 23.293 2.01786 23.5836 2.74621 23.5836H20.5823C20.9433 23.5849 21.301 23.5144 21.6347 23.3763C21.9685 23.2381 22.2717 23.035 22.527 22.7786C22.7823 22.5223 22.9845 22.2177 23.122 21.8825C23.2596 21.5473 23.3298 21.1881 23.3285 20.8255V7.09328C23.3281 6.70356 23.2454 6.31836 23.086 5.96306C22.9265 5.60776 22.6939 5.29043 22.4035 5.03198ZM18.048 19.9449H5.2901C4.91442 19.9449 4.55413 19.795 4.28849 19.5282C4.02284 19.2614 3.87362 18.8996 3.87362 18.5223C3.87362 18.145 4.02284 17.7832 4.28849 17.5164C4.55413 17.2496 4.91442 17.0997 5.2901 17.0997H18.0577C18.4333 17.0997 18.7936 17.2496 19.0593 17.5164C19.3249 17.7832 19.4741 18.145 19.4741 18.5223C19.4741 18.8996 19.3249 19.2614 19.0593 19.5282C18.7936 19.795 18.4333 19.9449 18.0577 19.9449H18.048Z" fill="#F77D19"/>
</svg>
